<!DOCTYPE svg PUBLIC "-//W3C//DTD SVG 1.1//EN" "http://www.w3.org/Graphics/SVG/1.1/DTD/svg11.dtd">
<!-- Uploaded to: SVG Repo, www.svgrepo.com, Transformed by: SVG Repo Mixer Tools -->
<svg fill="#2b314f" height="800px" width="800px" version="1.1" id="Layer_1" xmlns="http://www.w3.org/2000/svg" xmlns:xlink="http://www.w3.org/1999/xlink" viewBox="0 0 512.007 512.007" xml:space="preserve">
<g id="SVGRepo_bgCarrier" stroke-width="0"/>
<g id="SVGRepo_tracerCarrier" stroke-linecap="round" stroke-linejoin="round"/>
<g id="SVGRepo_iconCarrier"> <g> <g> <g> <path d="M413.669,69.252c2.185,0,4.369-0.836,6.033-2.5l6.033-6.033c3.337-3.337,3.337-8.73,0-12.066 c-3.337-3.336-8.73-3.336-12.066,0l-6.033,6.033c-3.336,3.337-3.336,8.73,0,12.066C409.3,68.416,411.484,69.252,413.669,69.252z"/> <path d="M93.868,66.753c1.664,1.664,3.849,2.5,6.033,2.5c2.185,0,4.369-0.836,6.033-2.5c3.337-3.337,3.337-8.73,0-12.066 l-6.033-6.033c-3.336-3.337-8.73-3.337-12.066,0s-3.337,8.73,0,12.066L93.868,66.753z"/> <path d="M119.468,388.269c9.412,0,17.067,7.654,17.067,17.067c0,4.71,3.814,8.533,8.533,8.533s8.533-3.823,8.533-8.533 c0-4.702,3.823-8.533,8.533-8.533c4.71,0,8.533,3.831,8.533,8.533c0,4.71,3.814,8.533,8.533,8.533s8.533-3.823,8.533-8.533 c0-14.114-11.486-25.6-25.6-25.6c-5.76,0-11.085,1.911-15.369,5.137c-4.821-6.426-11.853-11.093-19.959-12.877 c-3.285-10.342-12.988-17.86-24.405-17.86c-11.128,0-20.617,7.134-24.141,17.067h-9.993c-18.825,0-34.133,15.309-34.133,34.133 c0,4.71,3.814,8.533,8.533,8.533s8.533-3.823,8.533-8.533c0-9.412,7.654-17.067,17.067-17.067h17.067 c4.719,0,8.533-3.823,8.533-8.533c0-4.702,3.823-8.533,8.533-8.533c4.71,0,8.533,3.831,8.533,8.533 C110.935,384.446,114.749,388.269,119.468,388.269z"/> <path d="M418.135,473.602c-5.76,0-11.085,1.911-15.369,5.137c-4.821-6.426-11.853-11.093-19.959-12.877 c-3.285-10.342-12.988-17.86-24.405-17.86c-11.128,0-20.617,7.134-24.141,17.067h-9.993c-18.825,0-34.133,15.309-34.133,34.133 c0,4.71,3.814,8.533,8.533,8.533s8.533-3.823,8.533-8.533c0-9.412,7.654-17.067,17.067-17.067h17.067 c4.719,0,8.533-3.823,8.533-8.533c0-4.702,3.823-8.533,8.533-8.533s8.533,3.831,8.533,8.533c0,4.71,3.814,8.533,8.533,8.533 c9.412,0,17.067,7.654,17.067,17.067c0,4.71,3.814,8.533,8.533,8.533c4.719,0,8.533-3.823,8.533-8.533 c0-4.702,3.823-8.533,8.533-8.533s8.533,3.831,8.533,8.533c0,4.71,3.814,8.533,8.533,8.533s8.533-3.823,8.533-8.533 C443.735,485.088,432.249,473.602,418.135,473.602z"/> <path d="M486.402,396.802c-5.76,0-11.085,1.911-15.369,5.137c-4.821-6.426-11.853-11.093-19.959-12.877 c-3.285-10.342-12.988-17.86-24.405-17.86c-11.529,0-21.291,7.654-24.491,18.142c-10.513,3.191-18.176,12.971-18.176,24.508 c0,14.123,11.486,25.617,25.6,25.617c4.719,0,8.533-3.823,8.533-8.533s-3.814-8.533-8.533-8.533c-4.71,0-8.533-3.84-8.533-8.55 c0-4.565,3.601-8.303,8.107-8.525c4.907,0.119,8.96-3.669,8.96-8.525c0-4.702,3.823-8.533,8.533-8.533s8.533,3.831,8.533,8.533 c0,4.71,3.814,8.533,8.533,8.533c9.412,0,17.067,7.654,17.067,17.067c0,4.71,3.814,8.533,8.533,8.533s8.533-3.823,8.533-8.533 c0-4.702,3.823-8.533,8.533-8.533s8.533,3.831,8.533,8.533c0,4.71,3.814,8.533,8.533,8.533c4.719,0,8.533-3.823,8.533-8.533 C512.002,408.288,500.516,396.802,486.402,396.802z"/> <path d="M213.335,456.536c-5.76,0-11.085,1.911-15.369,5.137c-4.821-6.426-11.853-11.093-19.959-12.877 c-3.285-10.342-12.988-17.86-24.405-17.86c-11.529,0-21.291,7.654-24.491,18.142c-10.513,3.191-18.176,12.971-18.176,24.508 c0,14.123,11.486,25.617,25.6,25.617c4.719,0,8.533-3.823,8.533-8.533s-3.814-8.533-8.533-8.533c-4.71,0-8.533-3.84-8.533-8.55 c0-4.565,3.601-8.303,8.107-8.525c4.77,0.256,8.96-3.669,8.96-8.525c0-4.702,3.823-8.533,8.533-8.533 c4.71,0,8.533,3.831,8.533,8.533c0,4.71,3.814,8.533,8.533,8.533c9.412,0,17.067,7.654,17.067,17.067 c0,4.71,3.814,8.533,8.533,8.533s8.533-3.823,8.533-8.533c0-4.702,3.823-8.533,8.533-8.533c4.71,0,8.533,3.831,8.533,8.533 c0,4.71,3.814,8.533,8.533,8.533s8.533-3.823,8.533-8.533C238.935,468.022,227.449,456.536,213.335,456.536z"/> <path d="M297.235,367.398l9.242-13.867c2.773-4.156,6.289-7.748,10.257-10.752l51.277,92.305 c1.562,2.799,4.463,4.386,7.467,4.386c1.399,0,2.825-0.35,4.13-1.075c4.13-2.287,5.615-7.484,3.319-11.605l-50.56-91.008 l22.562-41.353l15.795-28.971c6.468,3.405,12.075,8.388,16.154,14.507l7.091,10.633c1.587,2.381,4.25,3.806,7.1,3.806 c2.85,0,5.513-1.425,7.1-3.797l7.091-10.633c4.079-6.118,9.677-11.11,16.154-14.515l64.563,118.366 c1.553,2.833,4.471,4.446,7.501,4.446c1.382,0,2.782-0.333,4.079-1.041c4.139-2.261,5.666-7.441,3.405-11.58l-92.766-170.069 c-2.731-36.958-17.826-70.332-41.139-96.179l18.509-18.509c3.337-3.328,3.337-8.738,0-12.066c-3.328-3.337-8.73-3.337-12.066,0 l-18.569,18.56c-26.948-24.243-61.986-39.501-100.395-41.506V12.804c0-4.71-3.814-8.533-8.533-8.533 c-4.719,0-8.533,3.823-8.533,8.533v43.102c-37.999,2.005-72.482,17.22-99.081,41.233l-18.321-18.313 c-3.328-3.337-8.73-3.337-12.066,0c-3.328,3.328-3.328,8.738,0,12.066l18.347,18.33c-25.737,28.655-41.566,66.44-41.677,107.964 l-23.279,39.39v0.009L1.188,375.394c-2.398,4.062-1.05,9.293,3.004,11.691c4.079,2.389,9.284,1.058,11.691-3.004l66.526-112.589 c10.163,4.233,19.046,11.273,25.173,20.454l4.787,7.185c1.579,2.372,4.241,3.806,7.1,3.806c2.85,0,5.513-1.425,7.1-3.806 l4.787-7.168c5.555-8.346,13.397-14.942,22.4-19.285l60.621,111.147c0.375,0.691,0.845,1.314,1.382,1.869 c0.213,0.222,0.478,0.367,0.708,0.563c0.358,0.29,0.691,0.606,1.084,0.836c0.299,0.171,0.64,0.265,0.956,0.401 c0.179,0.085,0.35,0.171,0.538,0.23l-21.7,39.066c-2.295,4.122-0.811,9.318,3.319,11.605c4.113,2.295,9.31,0.794,11.597-3.311 l51.277-92.305c3.968,3.004,7.484,6.596,10.257,10.752l9.242,13.867c1.587,2.381,4.25,3.806,7.1,3.806 C292.985,371.204,295.648,369.779,297.235,367.398z M401.068,209.822l22.17,40.644c-8.883,4.719-16.563,11.622-22.17,20.028 c-5.606-8.414-13.286-15.309-22.17-20.028L401.068,209.822z M119.468,279.215c-7.339-9.779-17.109-17.613-28.22-22.69 l20.403-34.534c0.017-0.017,0.034-0.026,0.043-0.043l7.475-12.672l26.334,48.29C135.298,262.635,126.329,270.076,119.468,279.215 z M332.793,174.818l12.937,22.212c-7.782,4.582-18.133,4.574-25.882-0.009L332.793,174.818z M311.332,211.631 c6.46,3.797,13.773,5.973,21.47,5.973c7.672,0,14.976-2.176,21.436-5.965l13.628,23.407l-20.787,38.11l-36.326-60.544 L311.332,211.631z M247.468,140.326l35.089,58.479c-11.861,5.018-22.298,13.124-30.08,23.501l-5.009,6.673l-5.009-6.682 c-7.782-10.377-18.227-18.475-30.071-23.492L247.468,140.326z M282.677,273.19l-54.46,98.014h-1.28L170.754,268.19l32.631-54.4 c10.035,3.738,18.961,10.138,25.421,18.748l11.836,15.787c1.613,2.142,4.147,3.413,6.827,3.413s5.214-1.263,6.827-3.413 l11.836-15.778c6.46-8.619,15.386-15.019,25.421-18.756l46.046,76.749l-15.036,27.58l-24.969-44.928 C294.589,267.772,285.681,267.772,282.677,273.19z"/> </g> </g> </g> </g>
</svg>