<svg version="1.1" id="Layer_1" xmlns="http://www.w3.org/2000/svg" xmlns:xlink="http://www.w3.org/1999/xlink" x="0px" y="0px"
	 width="100%" viewBox="0 0 500 500" enable-background="new 0 0 500 500" xml:space="preserve">
<path fill="#ffffff" opacity="1.000000" stroke="none" 
	d="
M345.000000,501.000000 
	C230.000031,501.000000 115.500053,501.000000 1.000062,501.000000 
	C1.000041,334.333405 1.000041,167.666794 1.000021,1.000151 
	C167.666550,1.000101 334.333099,1.000101 500.999756,1.000050 
	C500.999817,167.666519 500.999817,334.333038 500.999908,500.999786 
	C449.166656,501.000000 397.333344,501.000000 345.000000,501.000000 
M341.154755,175.545410 
	C341.090515,176.839478 341.026245,178.133560 340.961975,179.427628 
	C342.245941,179.201736 343.652557,179.231445 344.784424,178.688507 
	C346.381287,177.922577 347.774811,176.732803 350.508789,174.870285 
	C349.816284,177.991013 349.482269,179.496246 348.974976,181.739777 
	C348.160675,184.537674 345.693726,187.591507 348.755920,190.130539 
	C352.803925,193.487030 353.378876,198.797592 356.447723,202.808578 
	C358.189209,205.084717 359.269592,205.275009 360.818665,204.623367 
	C363.771179,203.381332 366.379120,201.337219 369.302734,200.004913 
	C372.748474,198.434662 374.925781,195.773682 373.813873,192.338593 
	C372.834808,189.313889 370.233490,186.807388 368.239960,184.153641 
	C368.184143,184.079376 366.890198,184.935272 366.119873,185.389069 
	C372.262207,192.430847 372.360626,193.372772 367.421082,195.774185 
	C360.441589,186.143768 359.380432,185.637833 351.979553,188.828339 
	C352.302155,186.381866 352.591064,184.191010 353.176758,181.303055 
	C354.141357,178.278625 355.146973,175.851013 359.300690,177.811432 
	C361.026581,178.625992 363.457520,177.946655 366.061279,177.946655 
	C363.061218,172.327438 356.897827,175.546371 352.974182,172.672195 
	C357.562073,169.164856 361.776123,165.943314 365.990173,162.721771 
	C365.724091,162.117981 365.458008,161.514191 365.191895,160.910385 
	C363.200226,161.348694 360.860657,161.270142 359.286896,162.329346 
	C355.642548,164.782166 352.508423,167.985947 348.899170,170.500168 
	C346.156250,172.410904 343.000214,173.728622 340.619690,174.825333 
	C339.727844,172.379288 335.813751,170.499496 339.236481,167.244415 
	C340.709229,165.843842 342.140350,164.396652 343.539825,162.922638 
	C345.598785,160.754013 347.654114,159.464874 350.508636,161.864151 
	C351.185394,162.433014 352.578278,162.149902 354.492645,162.345718 
	C351.926758,158.986969 347.780182,156.858505 352.736786,152.964813 
	C349.660034,153.358841 346.583282,153.752869 344.439026,154.027466 
	C343.463013,155.854156 342.992828,157.297119 342.071472,158.342361 
	C340.104431,160.573868 337.279907,162.279251 335.984222,164.804367 
	C334.824127,167.065262 334.710541,170.242203 335.219238,172.799316 
	C335.431549,173.866592 338.449036,174.375824 341.154755,175.545410 
M188.590424,359.952301 
	C189.884201,357.503021 191.177979,355.053772 192.471771,352.604492 
	C191.937729,352.225250 191.403702,351.845978 190.869675,351.466705 
	C189.417831,352.649353 187.839600,353.709686 186.546371,355.045868 
	C184.957458,356.687592 183.657150,358.604401 182.140366,360.321259 
	C180.035339,362.703918 177.315491,365.087463 174.426743,362.504730 
	C171.736954,360.099854 173.543747,357.285675 175.611588,354.826447 
	C177.992096,351.995392 180.018845,348.866852 182.199234,345.867523 
	C182.028122,345.374756 181.856995,344.881989 181.685867,344.389221 
	C180.186142,344.705261 178.188263,344.527008 177.286209,345.436066 
	C175.141342,347.597687 173.458313,350.234070 171.694046,352.752441 
	C169.680038,355.627289 166.638687,355.834381 164.326416,354.299530 
	C163.398636,353.683685 163.724045,349.829987 164.645432,348.055725 
	C166.640900,344.213287 169.388718,340.761597 171.828842,337.150085 
	C171.578979,336.762054 171.329117,336.373993 171.079269,335.985931 
	C169.715988,336.292725 167.819717,336.138977 167.085205,336.989014 
	C164.439636,340.050751 162.046997,343.359924 159.823975,346.749512 
	C157.704742,349.980835 158.875397,356.227661 162.173615,356.874176 
	C169.174271,358.246460 170.985840,366.573334 177.856140,367.680298 
	C179.081772,367.877808 180.867126,368.380188 181.502899,367.786865 
	C183.887878,365.561249 185.903580,362.939880 188.590424,359.952301 
M310.603302,369.086823 
	C308.778717,365.832245 306.386871,362.755646 305.293610,359.271576 
	C304.259125,355.974884 302.815033,355.548309 299.273651,356.595001 
	C300.523010,358.698029 301.532135,360.481537 302.621002,362.214935 
	C307.425446,369.863403 307.176300,372.153564 300.332916,377.413208 
	C297.872833,373.188416 294.926361,369.257629 293.234711,364.845703 
	C292.006073,361.641449 290.489197,361.875854 287.983459,362.317108 
	C289.512970,366.013550 290.693909,369.559937 292.391479,372.838898 
	C297.267059,382.256348 300.502594,382.607971 308.636139,374.971710 
	C309.181427,374.459717 310.052917,374.272766 310.796021,373.997620 
	C314.812073,372.510559 318.862305,371.108704 322.821106,369.483521 
	C323.296661,369.288269 323.710876,367.732422 323.440979,367.122559 
	C321.098694,361.829895 318.667053,356.571960 316.045593,351.413696 
	C315.709717,350.752747 314.134216,350.721741 313.132996,350.398926 
	C312.959473,351.352905 312.379761,352.468262 312.683441,353.232635 
	C313.934235,356.380920 315.494293,359.404510 316.863861,362.507843 
	C318.907471,367.138458 316.603882,369.984833 310.603302,369.086823 
M132.230026,254.995041 
	C128.654739,255.254211 125.044647,255.933731 121.515007,255.641541 
	C118.614204,255.401398 116.070335,253.219681 117.204453,250.055893 
	C117.827461,248.317932 120.373268,246.558533 122.324181,246.168060 
	C125.529373,245.526535 128.980072,246.216782 132.275589,245.863495 
	C133.409531,245.741928 134.388977,244.179138 135.439011,243.274750 
	C135.137863,242.854691 134.836700,242.434647 134.535553,242.014587 
	C130.060776,242.014587 125.567505,241.755829 121.115425,242.073746 
	C114.007980,242.581268 111.472351,247.820450 114.587143,254.112686 
	C114.993210,254.932953 115.750755,255.789246 115.702774,256.590363 
	C115.380798,261.967377 114.884933,267.333954 114.446663,272.688934 
	C128.777771,273.681122 134.075165,272.768768 135.701614,269.002441 
	C131.422745,269.002441 127.163185,269.552979 123.155342,268.786804 
	C120.910889,268.357758 119.083511,265.746918 117.068199,264.119171 
	C118.684166,262.601959 120.086426,260.218170 121.962479,259.755493 
	C125.418915,258.903046 129.167419,259.304108 132.764206,258.909515 
	C133.852020,258.790192 134.840927,257.769501 135.875137,257.161682 
	C134.947021,256.440277 134.018921,255.718887 132.230026,254.995041 
M213.889725,374.146881 
	C212.664627,374.884094 211.394989,375.557098 210.222443,376.370117 
	C206.074722,379.246033 205.509476,386.556580 209.816864,389.089722 
	C213.321854,391.150909 217.685165,391.800201 221.727707,392.843842 
	C222.279572,392.986298 223.634766,391.915680 223.846405,391.183624 
	C225.963776,383.860046 227.998703,376.509094 229.809402,369.105347 
	C230.011276,368.279877 228.679031,367.079163 228.058243,366.052490 
	C227.174881,366.758209 225.889206,367.288208 225.488831,368.204895 
	C224.547485,370.360107 224.028961,372.700043 223.371460,374.859772 
	C221.610260,374.859772 220.129669,374.859772 218.337753,374.859772 
	C217.695831,372.177673 217.234528,369.486633 216.385681,366.923981 
	C215.577942,364.485504 215.666885,360.552185 210.693878,362.648102 
	C211.786560,366.273468 212.853561,369.813660 213.889725,374.146881 
M375.840973,233.648468 
	C377.492981,232.994507 379.265045,232.543488 380.775543,231.650208 
	C386.274963,228.397949 387.187958,225.091309 384.511688,219.969803 
	C383.486755,218.008423 382.970673,215.781143 381.925995,212.839569 
	C372.771088,214.848618 362.837463,217.028549 352.142944,219.375473 
	C355.840851,225.799347 360.418427,219.954956 363.837982,221.615311 
	C361.747467,230.186737 367.011108,234.712524 375.840973,233.648468 
M152.026642,310.634613 
	C150.354202,308.695740 148.681747,306.756866 146.526001,304.257721 
	C143.601471,304.008423 125.236557,313.596924 121.003159,318.230652 
	C123.265320,321.723328 125.361435,319.063232 127.557556,318.126373 
	C129.216736,317.418579 131.028885,315.953003 131.991821,319.294403 
	C133.787903,325.526794 138.158203,327.720245 143.932602,325.545624 
	C150.938721,322.907166 156.329895,317.884583 152.026642,310.634613 
M387.065704,266.303772 
	C387.259430,260.844208 382.388458,259.847473 379.172821,259.386963 
	C375.302429,258.832672 371.074829,260.539093 367.059601,261.506378 
	C366.518433,261.636749 366.097839,263.136047 365.985535,264.046356 
	C364.613739,275.167053 364.600281,275.314056 375.392273,277.631470 
	C380.629272,278.755951 385.994904,279.353027 391.332886,279.877411 
	C392.441467,279.986328 393.685242,278.719269 394.866699,278.086365 
	C393.762665,277.395264 392.736481,276.475342 391.536224,276.067108 
	C389.764465,275.464478 387.868866,275.225922 386.354553,274.902496 
	C386.772156,271.915466 387.116486,269.452637 387.065704,266.303772 
M340.839722,326.977692 
	C340.234924,327.819489 338.972717,329.230072 339.130310,329.412201 
	C340.293549,330.756744 341.675476,331.942078 343.108337,333.018097 
	C349.221527,337.608734 355.376068,342.144379 361.529541,346.710480 
	C364.333221,345.284332 363.869904,343.852692 361.596283,342.152161 
	C359.917023,340.896240 358.460876,339.341980 356.798676,337.823181 
	C361.646851,334.809540 364.131958,331.387146 362.679382,326.308594 
	C361.636719,322.663147 354.189972,316.938873 351.329193,317.252930 
	C344.024902,318.054810 342.632446,319.421906 340.839722,326.977692 
M317.966675,147.530350 
	C318.735321,146.112244 319.440948,144.655457 320.283569,143.282761 
	C323.797913,137.557739 322.907135,134.569214 316.788940,131.992081 
	C315.226562,131.333984 313.582581,130.869537 311.526703,130.161316 
	C312.975433,127.266205 314.288879,124.641434 316.366241,120.490005 
	C313.450012,121.360794 310.958344,121.349350 310.369232,122.402328 
	C306.284271,129.703949 302.593018,137.225922 298.784393,144.681763 
	C298.597504,145.047653 298.494598,145.456451 298.294220,146.005096 
	C299.548248,146.658371 300.631622,147.222717 301.974060,147.922043 
	C303.407745,145.085297 304.718475,142.481384 306.038452,139.882172 
	C309.588806,132.891037 311.604218,132.368637 318.319794,137.120453 
	C316.874542,140.207809 315.311218,143.362610 313.917603,146.590668 
	C313.015015,148.681320 312.331451,150.870529 311.690796,153.056915 
	C311.662323,153.154022 313.582733,154.051453 313.676117,153.920502 
	C315.017426,152.039780 316.200684,150.046326 317.966675,147.530350 
M152.459259,182.967957 
	C153.488998,183.938995 154.518753,184.910034 155.458939,185.796616 
	C159.213898,183.307999 157.844849,181.756165 155.093872,179.895370 
	C151.301010,177.329788 146.494598,175.377853 146.976074,169.397934 
	C147.295624,165.428986 150.107315,163.813141 153.351639,165.986664 
	C156.165085,167.871490 158.713272,170.152969 161.531219,172.030151 
	C163.264450,173.184708 165.469650,175.664993 166.997360,171.694412 
	C163.308350,168.625595 159.836456,165.684402 156.305923,162.815384 
	C152.798584,159.965210 148.898376,160.162659 145.964661,163.617416 
	C144.487518,165.356888 143.578064,167.578415 142.413086,169.577621 
	C139.870575,167.640015 137.328079,165.702393 134.785568,163.764786 
	C134.371567,164.001144 133.957581,164.237503 133.543579,164.473862 
	C134.132416,165.913269 134.328400,167.803513 135.376022,168.716415 
	C140.787552,173.432068 146.417145,177.897476 152.459259,182.967957 
M145.558105,205.923965 
	C146.572021,202.737427 147.585938,199.550903 148.737137,195.932938 
	C144.250534,193.673386 139.741257,190.774521 134.815643,189.101105 
	C130.037018,187.477600 125.470543,191.603897 125.318382,200.814789 
	C126.410751,200.814789 127.512535,200.814789 128.606140,200.814789 
	C129.942734,193.279221 130.099960,193.089645 135.225281,193.528320 
	C134.725876,196.254135 134.642059,199.088211 133.656250,201.562988 
	C131.967346,205.802780 134.816116,208.194580 137.404175,209.539597 
	C140.144577,210.963760 143.554611,210.239059 145.558105,205.923965 
M317.971558,348.590790 
	C320.262878,351.543640 322.910034,354.293457 324.743835,357.507355 
	C326.522125,360.623932 329.106354,362.222046 332.198242,361.774536 
	C336.380585,361.169128 339.275909,358.362000 340.157990,353.472046 
	C338.214417,353.792938 336.078613,354.371216 335.167145,355.755585 
	C332.894348,359.207367 331.115753,358.710693 328.999939,356.130310 
	C331.000946,353.552338 333.240997,351.444641 334.442261,348.855072 
	C335.294281,347.018280 335.656921,343.714569 334.598755,342.530426 
	C333.117462,340.872803 330.137177,339.927643 327.751801,339.831696 
	C322.283142,339.611786 321.712311,346.151215 317.971558,348.590790 
M201.057114,146.761826 
	C202.668503,146.452011 204.279907,146.142181 206.233215,145.766632 
	C203.882523,141.269547 201.869675,137.281326 199.730927,133.361786 
	C197.027374,128.407150 190.998322,127.195221 186.687103,130.910721 
	C185.607437,131.841202 185.316422,133.686813 184.662949,135.111847 
	C185.993347,134.738098 187.540192,134.678070 188.616241,133.935654 
	C193.004181,130.908218 194.233093,131.116287 195.548080,135.121429 
	C193.057083,137.200836 190.284164,138.852203 188.498917,141.241531 
	C187.329300,142.806900 186.720673,145.822617 187.453964,147.486694 
	C188.178070,149.129898 191.012604,150.964554 192.731155,150.794434 
	C195.555511,150.514893 198.226349,148.684540 201.057114,146.761826 
M162.960388,151.560242 
	C165.219437,148.880981 167.465775,147.657745 169.996689,152.077408 
	C168.682236,153.208847 167.210770,154.313904 165.930496,155.608109 
	C162.257950,159.320602 162.181427,164.406433 165.669769,167.132065 
	C168.354523,169.229782 173.879425,167.580368 176.416550,164.090668 
	C177.537704,162.548584 179.000687,161.255020 181.047562,159.053848 
	C178.473190,156.046021 175.132996,152.366089 172.055618,148.478134 
	C169.548615,145.310806 166.174835,145.162003 163.229462,146.538086 
	C160.105789,147.997467 157.646133,150.727066 158.421494,156.173584 
	C160.215759,154.323685 161.308731,153.196838 162.960388,151.560242 
M157.526901,326.057068 
	C161.971649,330.924591 162.015915,332.049866 157.711060,336.098419 
	C155.698502,333.790192 153.568115,331.580597 151.710251,329.161682 
	C148.864792,325.456940 146.423584,327.106232 144.766281,329.941223 
	C143.756165,331.669098 143.398590,334.221313 143.758179,336.221710 
	C144.732010,341.639374 149.823227,344.288574 155.869324,342.938049 
	C161.134109,341.762054 165.745789,334.726440 164.990768,331.204742 
	C163.818756,325.737976 159.302887,321.930145 154.238419,322.617645 
	C155.211502,323.648651 156.107986,324.598480 157.526901,326.057068 
M201.824005,376.668793 
	C202.875763,375.606903 204.004181,374.609711 204.965286,373.471252 
	C208.205887,369.632751 209.016281,363.600586 206.808151,360.283783 
	C204.334671,356.568420 198.832275,354.590820 193.921799,355.804596 
	C195.937775,360.525391 206.153900,358.109222 203.331253,367.640564 
	C198.908310,366.107788 194.636841,364.627472 190.278580,363.117096 
	C187.099640,367.402191 187.818527,371.583618 191.057480,374.998016 
	C193.656830,377.738159 197.183380,379.283203 201.824005,376.668793 
M369.317200,238.909698 
	C365.453033,242.032486 364.882629,248.983368 368.079895,252.648895 
	C372.459076,257.669464 382.438782,256.074951 385.431580,253.022018 
	C389.251617,249.125183 389.398621,243.310593 385.514862,239.198547 
	C382.228271,235.718719 374.147858,233.958160 369.317200,238.909698 
M327.096375,163.619965 
	C327.686920,165.913467 328.753387,167.093658 330.675995,164.753403 
	C332.733734,162.248703 334.351990,159.347015 336.596222,157.041199 
	C339.080933,154.488327 341.336853,151.517502 339.536346,148.368881 
	C337.477661,144.768753 333.846954,142.328278 328.897644,142.836975 
	C329.917664,144.474899 331.472321,145.337189 332.824371,146.446381 
	C333.977753,147.392563 335.232849,148.480804 335.785431,149.784821 
	C336.076416,150.471512 334.744904,152.673752 334.514496,152.619751 
	C332.955688,152.254410 331.549896,151.243073 329.991699,150.867157 
	C326.939667,150.130844 323.803619,149.227127 320.738190,149.342819 
	C319.671509,149.383072 318.213043,152.110580 317.806641,153.818527 
	C316.997192,157.220428 320.402924,161.106796 324.383240,161.981918 
	C325.435486,162.213287 326.443817,162.644501 327.096375,163.619965 
M301.487793,121.961868 
	C302.583313,121.874527 303.678864,121.787186 304.774384,121.699844 
	C304.272583,120.474022 304.033142,118.425766 303.222778,118.167267 
	C300.020294,117.145706 296.657593,116.251770 293.319794,116.107109 
	C286.402313,115.807297 283.437469,118.171631 281.041351,124.972160 
	C278.554810,132.029388 279.453766,137.308029 284.619934,140.896561 
	C287.174316,142.670853 290.598236,143.177841 293.605316,144.319901 
	C296.947723,145.589325 297.014832,143.686188 296.901764,141.017822 
	C291.732391,141.133347 286.537262,140.583191 285.252533,134.993362 
	C284.063904,129.821518 284.607513,124.060867 289.219666,120.522491 
	C292.853760,117.734489 297.256195,118.044456 301.487793,121.961868 
M363.257568,299.011444 
	C359.660828,298.719696 356.127289,299.057831 354.216522,302.556610 
	C350.176361,309.954468 355.017059,318.428009 363.461884,319.054016 
	C369.445343,319.497559 372.792175,317.391266 374.648346,311.796356 
	C376.269714,306.909271 372.893890,304.048615 369.817657,301.410614 
	C368.323975,300.129700 366.029144,299.783020 363.257568,299.011444 
M121.023117,295.692230 
	C122.202332,296.043091 123.479538,296.873260 124.542564,296.655884 
	C127.874069,295.974670 131.095917,294.774719 134.412704,294.000458 
	C142.180084,292.187317 142.051697,287.069336 139.786224,282.355835 
	C138.746323,280.192261 138.014694,277.880463 136.737137,274.589722 
	C130.628769,276.361542 123.770920,278.350800 116.913063,280.340057 
	C116.820015,280.874329 116.726967,281.408600 116.633911,281.942841 
	C117.704163,282.321350 118.877007,283.188324 119.825882,282.989014 
	C122.979347,282.326630 126.006859,280.898132 129.172775,280.522217 
	C131.148804,280.287567 133.937881,280.771637 135.225296,282.064850 
	C138.520950,285.375427 137.404907,288.377686 132.930222,290.082855 
	C128.948563,291.600128 125.024208,293.267731 121.023117,295.692230 
M139.062943,212.032028 
	C136.227020,211.422562 133.376312,210.874100 130.557999,210.191925 
	C122.828369,208.320999 117.431236,211.606628 117.985405,217.748184 
	C118.158775,219.669601 117.623512,221.654953 117.330780,224.370071 
	C122.963333,228.574509 135.442276,230.907349 137.978897,227.393829 
	C133.816055,225.988998 129.783157,224.330185 125.595718,223.298920 
	C121.436272,222.274551 121.602470,219.399796 122.283432,216.506332 
	C123.071213,213.158966 125.503738,212.272980 128.758820,213.320679 
	C131.989105,214.360367 135.239014,215.367950 138.537048,216.150513 
	C139.506149,216.380432 140.668442,215.796097 141.742203,215.584961 
	C141.102661,214.507629 140.463120,213.430283 139.062943,212.032028 
M209.657761,142.987259 
	C211.227341,142.660263 212.785095,142.251541 214.368866,142.022705 
	C218.040237,141.492279 221.260712,140.449905 220.983215,135.839111 
	C220.679550,130.793060 216.851562,130.404785 213.014893,129.985626 
	C210.628723,129.724915 208.271423,129.200058 205.901169,128.793777 
	C205.848373,128.181488 205.795578,127.569191 205.742767,126.956902 
	C209.247025,125.361511 212.751282,123.766129 216.255539,122.170738 
	C213.690964,120.988220 211.451874,120.546906 209.482727,121.088005 
	C206.242920,121.978264 202.794769,123.078987 203.008530,127.647079 
	C203.208755,131.926422 205.804077,132.891891 209.548691,133.119934 
	C212.104462,133.275574 214.606155,134.319580 217.132019,134.966385 
	C217.221664,135.632339 217.311310,136.298294 217.400940,136.964249 
	C215.083313,137.963440 212.724899,138.879974 210.464722,139.995575 
	C209.280502,140.580109 208.268661,141.513885 207.178970,142.289932 
	C207.726303,142.523361 208.273621,142.756790 209.657761,142.987259 
M382.148743,300.064636 
	C383.375397,300.646332 384.602051,301.228058 385.828705,301.809753 
	C386.258423,301.381104 386.688171,300.952423 387.117889,300.523773 
	C386.127411,299.358215 385.359985,297.589752 384.109467,297.127197 
	C377.190643,294.567932 370.152954,292.330353 363.158630,289.974762 
	C360.494080,289.077332 358.038879,287.751617 359.069794,284.418427 
	C360.327057,280.353394 357.810120,281.032410 355.546661,281.083221 
	C353.493500,288.797791 354.585602,291.433533 362.264893,293.268555 
	C368.794678,294.828888 375.012848,297.693329 382.148743,300.064636 
M346.424042,342.886627 
	C347.033112,339.859375 346.904907,337.806549 342.725922,337.751343 
	C340.800781,337.725891 338.919098,335.627930 336.985931,334.525330 
	C335.865631,333.886292 334.682343,333.357758 333.527374,332.779480 
	C333.212341,333.143677 332.897339,333.507874 332.582336,333.872070 
	C333.504150,335.230347 334.282104,336.720703 335.380249,337.917236 
	C337.206177,339.906830 340.317749,341.416962 340.921417,343.658600 
	C341.761810,346.778992 340.981842,350.161530 345.984131,348.134399 
	C346.148499,348.067810 346.649323,349.007751 347.076935,349.383240 
	C348.643433,350.758514 350.131195,352.275696 351.879456,353.370972 
	C352.829956,353.966492 354.245819,353.819244 355.451782,354.007019 
	C354.950012,352.818268 354.705872,351.402344 353.896729,350.484558 
	C351.711792,348.006226 349.286316,345.739960 346.424042,342.886627 
M180.526291,151.042648 
	C182.117645,153.039673 183.709000,155.036713 185.300354,157.033737 
	C185.857620,156.798386 186.414902,156.563049 186.972168,156.327698 
	C186.316605,154.144302 186.252594,151.438721 184.882217,149.886292 
	C182.035995,146.661880 180.344528,143.442627 182.118515,138.593811 
	C175.958557,141.438248 174.783859,135.900864 173.531174,133.417252 
	C171.638184,129.664215 170.429840,130.735260 168.631317,131.955139 
	C169.852966,138.045700 177.702927,141.010574 175.007538,148.691422 
	C176.670959,149.292053 178.357010,149.900833 180.526291,151.042648 
M139.494629,297.012939 
	C134.334061,299.182617 129.173477,301.352325 123.621208,303.686707 
	C124.657379,304.907318 125.469650,305.864166 126.356537,306.908936 
	C131.663773,304.584259 136.845596,302.386536 141.950226,300.022156 
	C143.065399,299.505585 143.905045,298.394196 144.871582,297.556763 
	C143.343765,297.352692 141.815964,297.148590 139.494629,297.012939 
M287.514893,372.954865 
	C287.021484,370.929108 286.204132,368.918976 286.105591,366.874176 
	C285.927979,363.187927 284.343781,362.243652 280.558838,363.601471 
	C283.985107,370.280914 283.286652,378.468689 288.178650,384.359680 
	C288.908600,384.120026 289.638550,383.880371 290.368530,383.640686 
	C289.571289,380.313202 288.774078,376.985718 287.514893,372.954865 
z"/>
<path fill="#ACACAC" opacity="1.000000" stroke="none" 
	d="
M188.324051,360.209595 
	C185.903580,362.939880 183.887878,365.561249 181.502899,367.786865 
	C180.867126,368.380188 179.081772,367.877808 177.856140,367.680298 
	C170.985840,366.573334 169.174271,358.246460 162.173615,356.874176 
	C158.875397,356.227661 157.704742,349.980835 159.823975,346.749512 
	C162.046997,343.359924 164.439636,340.050751 167.085205,336.989014 
	C167.819717,336.138977 169.715988,336.292725 171.079269,335.985931 
	C171.329117,336.373993 171.578979,336.762054 171.828842,337.150085 
	C169.388718,340.761597 166.640900,344.213287 164.645432,348.055725 
	C163.724045,349.829987 163.398636,353.683685 164.326416,354.299530 
	C166.638687,355.834381 169.680038,355.627289 171.694046,352.752441 
	C173.458313,350.234070 175.141342,347.597687 177.286209,345.436066 
	C178.188263,344.527008 180.186142,344.705261 181.685867,344.389221 
	C181.856995,344.881989 182.028122,345.374756 182.199234,345.867523 
	C180.018845,348.866852 177.992096,351.995392 175.611588,354.826447 
	C173.543747,357.285675 171.736954,360.099854 174.426743,362.504730 
	C177.315491,365.087463 180.035339,362.703918 182.140366,360.321259 
	C183.657150,358.604401 184.957458,356.687592 186.546371,355.045868 
	C187.839600,353.709686 189.417831,352.649353 190.869675,351.466705 
	C191.403702,351.845978 191.937729,352.225250 192.471771,352.604492 
	C191.177979,355.053772 189.884201,357.503021 188.324051,360.209595 
z"/>
<path fill="#ADADAD" opacity="1.000000" stroke="none" 
	d="
M310.868652,369.368744 
	C316.603882,369.984833 318.907471,367.138458 316.863861,362.507843 
	C315.494293,359.404510 313.934235,356.380920 312.683441,353.232635 
	C312.379761,352.468262 312.959473,351.352905 313.132996,350.398926 
	C314.134216,350.721741 315.709717,350.752747 316.045593,351.413696 
	C318.667053,356.571960 321.098694,361.829895 323.440979,367.122559 
	C323.710876,367.732422 323.296661,369.288269 322.821106,369.483521 
	C318.862305,371.108704 314.812073,372.510559 310.796021,373.997620 
	C310.052917,374.272766 309.181427,374.459717 308.636139,374.971710 
	C300.502594,382.607971 297.267059,382.256348 292.391479,372.838898 
	C290.693909,369.559937 289.512970,366.013550 287.983459,362.317108 
	C290.489197,361.875854 292.006073,361.641449 293.234711,364.845703 
	C294.926361,369.257629 297.872833,373.188416 300.332916,377.413208 
	C307.176300,372.153564 307.425446,369.863403 302.621002,362.214935 
	C301.532135,360.481537 300.523010,358.698029 299.273651,356.595001 
	C302.815033,355.548309 304.259125,355.974884 305.293610,359.271576 
	C306.386871,362.755646 308.778717,365.832245 310.868652,369.368744 
z"/>
<path fill="#A9A9A9" opacity="1.000000" stroke="none" 
	d="
M132.660416,254.996262 
	C134.018921,255.718887 134.947021,256.440277 135.875122,257.161682 
	C134.840927,257.769501 133.852020,258.790192 132.764206,258.909515 
	C129.167419,259.304108 125.418915,258.903046 121.962479,259.755493 
	C120.086426,260.218170 118.684166,262.601959 117.068207,264.119171 
	C119.083511,265.746918 120.910889,268.357758 123.155342,268.786804 
	C127.163185,269.552979 131.422745,269.002441 135.701614,269.002441 
	C134.075165,272.768768 128.777771,273.681122 114.446663,272.688934 
	C114.884933,267.333954 115.380798,261.967377 115.702774,256.590363 
	C115.750755,255.789246 114.993210,254.932953 114.587143,254.112686 
	C111.472351,247.820450 114.007980,242.581268 121.115425,242.073746 
	C125.567505,241.755829 130.060776,242.014587 134.535553,242.014587 
	C134.836700,242.434647 135.137863,242.854691 135.439011,243.274750 
	C134.388977,244.179138 133.409531,245.741928 132.275589,245.863495 
	C128.980072,246.216782 125.529373,245.526535 122.324181,246.168060 
	C120.373268,246.558533 117.827461,248.317932 117.204453,250.055893 
	C116.070335,253.219681 118.614204,255.401398 121.515007,255.641541 
	C125.044647,255.933731 128.654739,255.254211 132.660416,254.996262 
z"/>
<path fill="#ABABAB" opacity="1.000000" stroke="none" 
	d="
M213.905151,373.750366 
	C212.853561,369.813660 211.786560,366.273468 210.693878,362.648102 
	C215.666885,360.552185 215.577942,364.485504 216.385681,366.923981 
	C217.234528,369.486633 217.695831,372.177673 218.337753,374.859772 
	C220.129669,374.859772 221.610260,374.859772 223.371460,374.859772 
	C224.028961,372.700043 224.547485,370.360107 225.488831,368.204895 
	C225.889206,367.288208 227.174881,366.758209 228.058243,366.052490 
	C228.679031,367.079163 230.011276,368.279877 229.809402,369.105347 
	C227.998703,376.509094 225.963776,383.860046 223.846405,391.183624 
	C223.634766,391.915680 222.279572,392.986298 221.727707,392.843842 
	C217.685165,391.800201 213.321854,391.150909 209.816864,389.089722 
	C205.509476,386.556580 206.074722,379.246033 210.222443,376.370117 
	C211.394989,375.557098 212.664627,374.884094 213.905151,373.750366 
M220.975662,385.410706 
	C221.987457,382.989227 223.249756,380.476135 219.527435,379.197052 
	C216.544785,378.172119 213.751816,377.463196 211.892624,381.301758 
	C210.559662,384.053864 210.972321,385.997253 213.665344,387.135468 
	C216.135101,388.179291 219.110397,391.210846 220.975662,385.410706 
z"/>
<path fill="#ABABAB" opacity="1.000000" stroke="none" 
	d="
M375.454651,233.794739 
	C367.011108,234.712524 361.747467,230.186737 363.837982,221.615265 
	C360.418427,219.954956 355.840851,225.799347 352.142944,219.375473 
	C362.837463,217.028549 372.771088,214.848618 381.925995,212.839569 
	C382.970673,215.781143 383.486755,218.008423 384.511688,219.969803 
	C387.187958,225.091309 386.274963,228.397949 380.775543,231.650208 
	C379.265045,232.543488 377.492981,232.994507 375.454651,233.794739 
M368.451721,221.105179 
	C366.094788,225.129623 366.655182,229.712662 369.733856,229.685043 
	C373.288788,229.653137 376.996521,228.393188 380.269623,226.873306 
	C381.193665,226.444229 381.550293,222.948273 380.915985,221.358002 
	C379.096802,216.797119 375.086243,216.661560 368.451721,221.105179 
z"/>
<path fill="#ABABAB" opacity="1.000000" stroke="none" 
	d="
M152.056335,311.027405 
	C156.329895,317.884583 150.938721,322.907166 143.932602,325.545624 
	C138.158203,327.720245 133.787903,325.526794 131.991821,319.294403 
	C131.028885,315.953003 129.216736,317.418579 127.557556,318.126373 
	C125.361435,319.063232 123.265320,321.723328 121.003159,318.230652 
	C125.236557,313.596924 143.601471,304.008423 146.526001,304.257721 
	C148.681747,306.756866 150.354202,308.695740 152.056335,311.027405 
M135.087357,318.245087 
	C136.293350,319.729919 137.419601,322.396210 138.719894,322.483978 
	C143.083328,322.778534 146.421463,320.118103 148.682983,316.597321 
	C150.545364,313.697937 147.432053,309.232910 143.950272,309.618195 
	C139.234055,310.140076 135.453644,311.939240 135.087357,318.245087 
z"/>
<path fill="#ABABAB" opacity="1.000000" stroke="none" 
	d="
M387.263245,266.646790 
	C387.116486,269.452637 386.772156,271.915466 386.354553,274.902496 
	C387.868866,275.225922 389.764465,275.464478 391.536224,276.067108 
	C392.736481,276.475342 393.762665,277.395264 394.866699,278.086365 
	C393.685242,278.719269 392.441467,279.986328 391.332886,279.877411 
	C385.994904,279.353027 380.629272,278.755951 375.392273,277.631470 
	C364.600281,275.314056 364.613739,275.167053 365.985535,264.046356 
	C366.097839,263.136047 366.518433,261.636749 367.059601,261.506378 
	C371.074829,260.539093 375.302429,258.832672 379.172821,259.386963 
	C382.388458,259.847473 387.259430,260.844208 387.263245,266.646790 
M374.699982,273.701111 
	C376.294556,273.470673 378.019196,273.543427 379.449310,272.929688 
	C381.077881,272.230804 383.297638,271.166290 383.690735,269.806793 
	C384.110016,268.356598 383.106842,266.004486 381.961090,264.735504 
	C380.895355,263.555115 378.825928,263.278961 377.196075,262.610291 
	C373.376221,261.043152 370.388458,262.785492 369.228638,266.029510 
	C367.902222,269.739502 369.457489,272.818298 374.699982,273.701111 
z"/>
<path fill="#ABABAB" opacity="1.000000" stroke="none" 
	d="
M341.222046,326.889038 
	C342.632446,319.421906 344.024902,318.054810 351.329193,317.252930 
	C354.189972,316.938873 361.636719,322.663147 362.679382,326.308594 
	C364.131958,331.387146 361.646851,334.809540 356.798676,337.823181 
	C358.460876,339.341980 359.917023,340.896240 361.596283,342.152161 
	C363.869904,343.852692 364.333221,345.284332 361.529541,346.710480 
	C355.376068,342.144379 349.221527,337.608734 343.108337,333.018097 
	C341.675476,331.942078 340.293549,330.756744 339.130310,329.412201 
	C338.972717,329.230072 340.234924,327.819489 341.222046,326.889038 
M349.047821,321.514038 
	C343.335815,324.747894 343.562744,327.832214 349.258789,332.869385 
	C352.328064,335.583618 354.596130,335.908600 357.653931,332.931396 
	C361.028564,329.645660 359.108887,326.858124 356.883484,324.737518 
	C355.033051,322.974243 352.151489,322.293030 349.047821,321.514038 
z"/>
<path fill="#ADADAD" opacity="1.000000" stroke="none" 
	d="
M352.879944,182.000153 
	C352.591064,184.191010 352.302155,186.381866 351.979553,188.828339 
	C359.380432,185.637833 360.441589,186.143768 367.421082,195.774185 
	C372.360626,193.372772 372.262207,192.430847 366.119873,185.389069 
	C366.890198,184.935272 368.184143,184.079376 368.239960,184.153641 
	C370.233490,186.807388 372.834808,189.313889 373.813873,192.338593 
	C374.925781,195.773682 372.748474,198.434662 369.302734,200.004913 
	C366.379120,201.337219 363.771179,203.381332 360.818665,204.623367 
	C359.269592,205.275009 358.189209,205.084717 356.447723,202.808578 
	C353.378876,198.797592 352.803925,193.487030 348.755920,190.130539 
	C345.693726,187.591507 348.160675,184.537674 349.377502,181.434906 
	C350.813324,181.420074 351.846619,181.710114 352.879944,182.000153 
M363.560272,196.110550 
	C363.061829,195.278198 362.755798,194.147064 362.024597,193.676163 
	C360.536835,192.718033 358.819611,192.116241 357.196930,191.367615 
	C357.138611,193.462631 356.211731,196.236862 357.206238,197.508560 
	C359.161987,200.009537 362.024109,200.362213 363.560272,196.110550 
z"/>
<path fill="#ACACAC" opacity="1.000000" stroke="none" 
	d="
M317.694305,147.805161 
	C316.200684,150.046326 315.017426,152.039780 313.676117,153.920502 
	C313.582733,154.051453 311.662323,153.154022 311.690796,153.056915 
	C312.331451,150.870529 313.015015,148.681320 313.917603,146.590668 
	C315.311218,143.362610 316.874542,140.207809 318.319794,137.120453 
	C311.604218,132.368637 309.588806,132.891037 306.038452,139.882172 
	C304.718475,142.481384 303.407745,145.085297 301.974060,147.922043 
	C300.631622,147.222717 299.548248,146.658371 298.294220,146.005096 
	C298.494598,145.456451 298.597504,145.047653 298.784393,144.681763 
	C302.593018,137.225922 306.284271,129.703949 310.369232,122.402328 
	C310.958344,121.349350 313.450012,121.360794 316.366241,120.490005 
	C314.288879,124.641434 312.975433,127.266205 311.526703,130.161316 
	C313.582581,130.869537 315.226562,131.333984 316.788940,131.992081 
	C322.907135,134.569214 323.797913,137.557739 320.283569,143.282761 
	C319.440948,144.655457 318.735321,146.112244 317.694305,147.805161 
z"/>
<path fill="#ACACAC" opacity="1.000000" stroke="none" 
	d="
M152.214966,182.709061 
	C146.417145,177.897476 140.787552,173.432068 135.376022,168.716415 
	C134.328400,167.803513 134.132416,165.913269 133.543579,164.473862 
	C133.957581,164.237503 134.371567,164.001144 134.785568,163.764786 
	C137.328079,165.702393 139.870575,167.640015 142.412506,169.579803 
	C143.578064,167.578415 144.487518,165.356888 145.964661,163.617416 
	C148.898376,160.162659 152.798584,159.965210 156.305923,162.815384 
	C159.836456,165.684402 163.308350,168.625595 166.997360,171.694412 
	C165.469650,175.664993 163.264450,173.184708 161.531219,172.030151 
	C158.713272,170.152969 156.165085,167.871490 153.351639,165.986664 
	C150.107315,163.813141 147.295624,165.428986 146.976074,169.397934 
	C146.494598,175.377853 151.301010,177.329788 155.093872,179.895370 
	C157.844849,181.756165 159.213898,183.307999 155.458939,185.796616 
	C154.518753,184.910034 153.488998,183.938995 152.214966,182.709061 
z"/>
<path fill="#ACACAC" opacity="1.000000" stroke="none" 
	d="
M145.312225,206.237793 
	C143.554611,210.239059 140.144577,210.963760 137.404175,209.539597 
	C134.816116,208.194580 131.967346,205.802780 133.656250,201.562988 
	C134.642059,199.088211 134.725876,196.254135 135.225281,193.528320 
	C130.099960,193.089645 129.942734,193.279221 128.606140,200.814789 
	C127.512535,200.814789 126.410751,200.814789 125.318382,200.814789 
	C125.470543,191.603897 130.037018,187.477600 134.815643,189.101105 
	C139.741257,190.774521 144.250534,193.673386 148.737137,195.932938 
	C147.585938,199.550903 146.572021,202.737427 145.312225,206.237793 
M142.111328,197.684082 
	C140.758575,196.036636 139.037445,195.067917 138.203384,197.748795 
	C137.491730,200.036255 137.678696,202.634094 137.730972,205.089050 
	C137.737442,205.392303 140.057449,206.031494 140.132797,205.890106 
	C141.207245,203.873962 142.117538,201.765274 142.965164,199.638138 
	C143.114700,199.262833 142.798874,198.702103 142.111328,197.684082 
z"/>
<path fill="#ADADAD" opacity="1.000000" stroke="none" 
	d="
M317.766235,348.289185 
	C321.712311,346.151215 322.283142,339.611786 327.751801,339.831696 
	C330.137177,339.927643 333.117462,340.872803 334.598755,342.530426 
	C335.656921,343.714569 335.294281,347.018280 334.442261,348.855072 
	C333.240997,351.444641 331.000946,353.552338 328.999939,356.130310 
	C331.115753,358.710693 332.894348,359.207367 335.167145,355.755585 
	C336.078613,354.371216 338.214417,353.792938 340.157990,353.472046 
	C339.275909,358.362000 336.380585,361.169128 332.198242,361.774536 
	C329.106354,362.222046 326.522125,360.623932 324.743835,357.507355 
	C322.910034,354.293457 320.262878,351.543640 317.766235,348.289185 
M331.833435,345.479858 
	C330.635345,344.660675 329.018402,342.900543 328.322815,343.210175 
	C326.665344,343.947998 324.634003,345.470428 324.260651,347.035400 
	C323.844086,348.781647 325.093414,350.925262 325.964874,354.201233 
	C328.598999,350.650238 330.239990,348.438080 331.833435,345.479858 
z"/>
<path fill="#ACACAC" opacity="1.000000" stroke="none" 
	d="
M201.009521,147.134949 
	C198.226349,148.684540 195.555511,150.514893 192.731155,150.794434 
	C191.012604,150.964554 188.178070,149.129898 187.453964,147.486694 
	C186.720673,145.822617 187.329300,142.806900 188.498917,141.241531 
	C190.284164,138.852203 193.057083,137.200836 195.548080,135.121429 
	C194.233093,131.116287 193.004181,130.908218 188.616241,133.935654 
	C187.540192,134.678070 185.993347,134.738098 184.662949,135.111847 
	C185.316422,133.686813 185.607437,131.841202 186.687103,130.910721 
	C190.998322,127.195221 197.027374,128.407150 199.730927,133.361786 
	C201.869675,137.281326 203.882523,141.269547 206.233215,145.766632 
	C204.279907,146.142181 202.668503,146.452011 201.009521,147.134949 
M198.562820,143.919678 
	C198.490204,142.311829 198.417572,140.703979 198.330795,138.782684 
	C190.927734,141.760147 190.132324,143.227554 193.063339,148.566406 
	C194.770981,147.186188 196.415970,145.856613 198.562820,143.919678 
z"/>
<path fill="#ACACAC" opacity="1.000000" stroke="none" 
	d="
M162.681030,151.815125 
	C161.308731,153.196838 160.215759,154.323685 158.421494,156.173584 
	C157.646133,150.727066 160.105789,147.997467 163.229462,146.538086 
	C166.174835,145.162003 169.548615,145.310806 172.055618,148.478134 
	C175.132996,152.366089 178.473190,156.046021 181.047562,159.053848 
	C179.000687,161.255020 177.537704,162.548584 176.416550,164.090668 
	C173.879425,167.580368 168.354523,169.229782 165.669769,167.132065 
	C162.181427,164.406433 162.257950,159.320602 165.930496,155.608109 
	C167.210770,154.313904 168.682236,153.208847 169.996689,152.077408 
	C167.465775,147.657745 165.219437,148.880981 162.681030,151.815125 
M167.700089,163.916718 
	C171.706192,164.954071 173.183228,161.996658 174.151413,159.237915 
	C174.568787,158.048660 173.209915,156.235992 172.657974,154.706528 
	C171.935135,154.665085 171.212296,154.623627 170.489456,154.582169 
	C169.357605,157.503021 168.225769,160.423859 167.700089,163.916718 
z"/>
<path fill="#ACACAC" opacity="1.000000" stroke="none" 
	d="
M157.265686,325.802673 
	C156.107986,324.598480 155.211502,323.648651 154.238419,322.617645 
	C159.302887,321.930145 163.818756,325.737976 164.990768,331.204742 
	C165.745789,334.726440 161.134109,341.762054 155.869324,342.938049 
	C149.823227,344.288574 144.732010,341.639374 143.758179,336.221710 
	C143.398590,334.221313 143.756165,331.669098 144.766281,329.941223 
	C146.423584,327.106232 148.864792,325.456940 151.710251,329.161682 
	C153.568115,331.580597 155.698502,333.790192 157.711060,336.098419 
	C162.015915,332.049866 161.971649,330.924591 157.265686,325.802673 
M148.793640,339.237701 
	C151.423660,341.367035 153.388611,340.646118 155.157959,337.847290 
	C153.046249,335.620361 151.086807,333.554016 148.217072,330.527710 
	C148.217072,333.970062 148.217072,336.339722 148.793640,339.237701 
z"/>
<path fill="#ACACAC" opacity="1.000000" stroke="none" 
	d="
M201.467972,376.820190 
	C197.183380,379.283203 193.656830,377.738159 191.057480,374.998016 
	C187.818527,371.583618 187.099640,367.402191 190.278580,363.117096 
	C194.636841,364.627472 198.908310,366.107788 203.331253,367.640564 
	C206.153900,358.109222 195.937775,360.525391 193.921799,355.804596 
	C198.832275,354.590820 204.334671,356.568420 206.808151,360.283783 
	C209.016281,363.600586 208.205887,369.632751 204.965286,373.471252 
	C204.004181,374.609711 202.875763,375.606903 201.467972,376.820190 
M195.495041,367.986725 
	C194.518112,367.982330 192.814865,367.705414 192.695755,368.022888 
	C192.281235,369.127686 191.985413,370.622620 192.419861,371.637238 
	C193.875534,375.036896 197.888947,374.735260 200.527054,371.090607 
	C199.097549,370.084595 197.664337,369.075989 195.495041,367.986725 
z"/>
<path fill="#ACACAC" opacity="1.000000" stroke="none" 
	d="
M369.655823,238.698959 
	C374.147858,233.958160 382.228271,235.718719 385.514862,239.198547 
	C389.398621,243.310593 389.251617,249.125183 385.431580,253.022018 
	C382.438782,256.074951 372.459076,257.669464 368.079895,252.648895 
	C364.882629,248.983368 365.453033,242.032486 369.655823,238.698959 
M370.365753,248.885040 
	C374.149475,253.576401 382.368469,252.996124 384.550964,247.588089 
	C385.160034,246.078766 384.214264,242.390518 383.230286,242.079514 
	C380.230804,241.131485 376.800171,240.834854 373.658020,241.234100 
	C369.853790,241.717468 369.551758,244.899353 370.365753,248.885040 
z"/>
<path fill="#ABABAB" opacity="1.000000" stroke="none" 
	d="
M327.284363,163.301956 
	C326.443817,162.644501 325.435486,162.213287 324.383240,161.981918 
	C320.402924,161.106796 316.997192,157.220428 317.806641,153.818527 
	C318.213043,152.110580 319.671509,149.383072 320.738190,149.342819 
	C323.803619,149.227127 326.939667,150.130844 329.991699,150.867157 
	C331.549896,151.243073 332.955688,152.254410 334.514496,152.619751 
	C334.744904,152.673752 336.076416,150.471512 335.785431,149.784821 
	C335.232849,148.480804 333.977753,147.392563 332.824371,146.446381 
	C331.472321,145.337189 329.917664,144.474899 328.897644,142.836975 
	C333.846954,142.328278 337.477661,144.768753 339.536346,148.368881 
	C341.336853,151.517502 339.080933,154.488327 336.596222,157.041199 
	C334.351990,159.347015 332.733734,162.248703 330.675995,164.753403 
	C328.753387,167.093658 327.686920,165.913467 327.284363,163.301956 
M326.510651,159.996048 
	C328.321930,158.676025 330.133209,157.356003 332.278229,155.792770 
	C329.975311,154.379578 328.706909,153.236450 327.230652,152.805618 
	C325.948212,152.431381 324.430664,152.862930 323.016998,152.938385 
	C323.202362,154.618179 323.185547,156.357880 323.658173,157.952530 
	C323.895264,158.752487 325.023438,159.288376 326.510651,159.996048 
z"/>
<path fill="#ABABAB" opacity="1.000000" stroke="none" 
	d="
M301.205017,121.697754 
	C297.256195,118.044456 292.853760,117.734489 289.219666,120.522491 
	C284.607513,124.060867 284.063904,129.821518 285.252533,134.993362 
	C286.537262,140.583191 291.732391,141.133347 296.901764,141.017822 
	C297.014832,143.686188 296.947723,145.589325 293.605316,144.319901 
	C290.598236,143.177841 287.174316,142.670853 284.619934,140.896561 
	C279.453766,137.308029 278.554810,132.029388 281.041351,124.972160 
	C283.437469,118.171631 286.402313,115.807297 293.319794,116.107109 
	C296.657593,116.251770 300.020294,117.145706 303.222778,118.167267 
	C304.033142,118.425766 304.272583,120.474022 304.774384,121.699844 
	C303.678864,121.787186 302.583313,121.874527 301.205017,121.697754 
z"/>
<path fill="#ABABAB" opacity="1.000000" stroke="none" 
	d="
M363.677307,299.012421 
	C366.029144,299.783020 368.323975,300.129700 369.817657,301.410614 
	C372.893890,304.048615 376.269714,306.909271 374.648346,311.796356 
	C372.792175,317.391266 369.445343,319.497559 363.461884,319.054016 
	C355.017059,318.428009 350.176361,309.954468 354.216522,302.556610 
	C356.127289,299.057831 359.660828,298.719696 363.677307,299.012421 
M369.427094,305.958405 
	C366.378784,303.940765 363.418427,301.266449 359.399139,303.227692 
	C356.943512,304.425934 356.027710,309.685120 357.596405,312.070831 
	C359.178223,314.476471 366.271149,316.566711 368.463104,314.639771 
	C370.723358,312.652740 373.203491,309.857605 369.427094,305.958405 
z"/>
<path fill="#ACACAC" opacity="1.000000" stroke="none" 
	d="
M353.028351,181.651611 
	C351.846619,181.710114 350.813324,181.420074 349.464111,181.065765 
	C349.482269,179.496246 349.816284,177.991013 350.508789,174.870285 
	C347.774811,176.732803 346.381287,177.922577 344.784424,178.688507 
	C343.652557,179.231445 342.245941,179.201736 340.961975,179.427628 
	C341.026245,178.133560 341.090515,176.839478 340.656525,175.379517 
	C340.158295,175.213638 340.027985,175.310181 340.027985,175.310181 
	C343.000214,173.728622 346.156250,172.410904 348.899170,170.500168 
	C352.508423,167.985947 355.642548,164.782166 359.286896,162.329346 
	C360.860657,161.270142 363.200226,161.348694 365.191895,160.910385 
	C365.458008,161.514191 365.724091,162.117981 365.990173,162.721771 
	C361.776123,165.943314 357.562073,169.164856 352.974182,172.672195 
	C356.897827,175.546371 363.061218,172.327438 366.061279,177.946655 
	C363.457520,177.946655 361.026581,178.625992 359.300690,177.811432 
	C355.146973,175.851013 354.141357,178.278625 353.028351,181.651611 
z"/>
<path fill="#ABABAB" opacity="1.000000" stroke="none" 
	d="
M121.048843,295.280609 
	C125.024208,293.267731 128.948563,291.600128 132.930222,290.082855 
	C137.404907,288.377686 138.520950,285.375427 135.225296,282.064850 
	C133.937881,280.771637 131.148804,280.287567 129.172775,280.522217 
	C126.006859,280.898132 122.979347,282.326630 119.825882,282.989014 
	C118.877007,283.188324 117.704163,282.321350 116.633911,281.942841 
	C116.726967,281.408600 116.820015,280.874329 116.913063,280.340057 
	C123.770920,278.350800 130.628769,276.361542 136.737137,274.589722 
	C138.014694,277.880463 138.746323,280.192261 139.786224,282.355835 
	C142.051697,287.069336 142.180084,292.187317 134.412704,294.000458 
	C131.095917,294.774719 127.874069,295.974670 124.542564,296.655884 
	C123.479538,296.873260 122.202332,296.043091 121.048843,295.280609 
z"/>
<path fill="#AAAAAA" opacity="1.000000" stroke="none" 
	d="
M139.443253,212.192490 
	C140.463120,213.430283 141.102661,214.507629 141.742203,215.584961 
	C140.668442,215.796097 139.506149,216.380432 138.537048,216.150513 
	C135.239014,215.367950 131.989105,214.360367 128.758820,213.320679 
	C125.503738,212.272980 123.071213,213.158966 122.283432,216.506332 
	C121.602470,219.399796 121.436272,222.274551 125.595718,223.298920 
	C129.783157,224.330185 133.816055,225.988998 137.978897,227.393829 
	C135.442276,230.907349 122.963333,228.574509 117.330780,224.370071 
	C117.623512,221.654953 118.158775,219.669601 117.985405,217.748184 
	C117.431236,211.606628 122.828369,208.320999 130.557999,210.191925 
	C133.376312,210.874100 136.227020,211.422562 139.443253,212.192490 
z"/>
<path fill="#ABABAB" opacity="1.000000" stroke="none" 
	d="
M209.239349,142.988739 
	C208.273621,142.756790 207.726303,142.523361 207.178970,142.289932 
	C208.268661,141.513885 209.280502,140.580109 210.464722,139.995575 
	C212.724899,138.879974 215.083313,137.963440 217.400940,136.964249 
	C217.311310,136.298294 217.221664,135.632339 217.132019,134.966385 
	C214.606155,134.319580 212.104462,133.275574 209.548691,133.119934 
	C205.804077,132.891891 203.208755,131.926422 203.008530,127.647079 
	C202.794769,123.078987 206.242920,121.978264 209.482727,121.088005 
	C211.451874,120.546906 213.690964,120.988220 216.255539,122.170738 
	C212.751282,123.766129 209.247025,125.361511 205.742767,126.956902 
	C205.795578,127.569191 205.848373,128.181488 205.901169,128.793777 
	C208.271423,129.200058 210.628723,129.724915 213.014893,129.985626 
	C216.851562,130.404785 220.679550,130.793060 220.983215,135.839111 
	C221.260712,140.449905 218.040237,141.492279 214.368866,142.022705 
	C212.785095,142.251541 211.227341,142.660263 209.239349,142.988739 
z"/>
<path fill="#ABABAB" opacity="1.000000" stroke="none" 
	d="
M381.758789,300.022705 
	C375.012848,297.693329 368.794678,294.828888 362.264893,293.268555 
	C354.585602,291.433533 353.493500,288.797791 355.546661,281.083221 
	C357.810120,281.032410 360.327057,280.353394 359.069794,284.418427 
	C358.038879,287.751617 360.494080,289.077332 363.158630,289.974762 
	C370.152954,292.330353 377.190643,294.567932 384.109467,297.127197 
	C385.359985,297.589752 386.127411,299.358215 387.117889,300.523773 
	C386.688171,300.952423 386.258423,301.381104 385.828705,301.809753 
	C384.602051,301.228058 383.375397,300.646332 381.758789,300.022705 
z"/>
<path fill="#ADADAD" opacity="1.000000" stroke="none" 
	d="
M340.323853,175.067749 
	C340.027985,175.310181 340.158295,175.213638 340.174683,175.176208 
	C338.449036,174.375824 335.431549,173.866592 335.219238,172.799316 
	C334.710541,170.242203 334.824127,167.065262 335.984222,164.804367 
	C337.279907,162.279251 340.104431,160.573868 342.071472,158.342361 
	C342.992828,157.297119 343.463013,155.854156 344.439026,154.027466 
	C346.583282,153.752869 349.660034,153.358841 352.736786,152.964813 
	C347.780182,156.858505 351.926758,158.986969 354.492645,162.345718 
	C352.578278,162.149902 351.185394,162.433014 350.508636,161.864151 
	C347.654114,159.464874 345.598785,160.754013 343.539825,162.922638 
	C342.140350,164.396652 340.709229,165.843842 339.236481,167.244415 
	C335.813751,170.499496 339.727844,172.379288 340.323853,175.067749 
z"/>
<path fill="#AEAEAE" opacity="1.000000" stroke="none" 
	d="
M346.690186,343.138062 
	C349.286316,345.739960 351.711792,348.006226 353.896729,350.484558 
	C354.705872,351.402344 354.950012,352.818268 355.451782,354.007019 
	C354.245819,353.819244 352.829956,353.966492 351.879456,353.370972 
	C350.131195,352.275696 348.643433,350.758514 347.076935,349.383240 
	C346.649323,349.007751 346.148499,348.067810 345.984131,348.134399 
	C340.981842,350.161530 341.761810,346.778992 340.921417,343.658600 
	C340.317749,341.416962 337.206177,339.906830 335.380249,337.917236 
	C334.282104,336.720703 333.504150,335.230347 332.582336,333.872070 
	C332.897339,333.507874 333.212341,333.143677 333.527374,332.779480 
	C334.682343,333.357758 335.865631,333.886292 336.985931,334.525330 
	C338.919098,335.627930 340.800781,337.725891 342.725922,337.751343 
	C346.904907,337.806549 347.033112,339.859375 346.690186,343.138062 
z"/>
<path fill="#AEAEAE" opacity="1.000000" stroke="none" 
	d="
M180.284668,150.776138 
	C178.357010,149.900833 176.670959,149.292053 175.007538,148.691422 
	C177.702927,141.010574 169.852966,138.045700 168.631317,131.955139 
	C170.429840,130.735260 171.638184,129.664215 173.531174,133.417252 
	C174.783859,135.900864 175.958557,141.438248 182.118515,138.593811 
	C180.344528,143.442627 182.035995,146.661880 184.882217,149.886292 
	C186.252594,151.438721 186.316605,154.144302 186.972168,156.327698 
	C186.414902,156.563049 185.857620,156.798386 185.300354,157.033737 
	C183.709000,155.036713 182.117645,153.039673 180.284668,150.776138 
z"/>
<path fill="#AAAAAA" opacity="1.000000" stroke="none" 
	d="
M139.891388,296.978729 
	C141.815964,297.148590 143.343765,297.352692 144.871582,297.556763 
	C143.905045,298.394196 143.065399,299.505585 141.950226,300.022156 
	C136.845596,302.386536 131.663773,304.584259 126.356537,306.908936 
	C125.469650,305.864166 124.657379,304.907318 123.621208,303.686707 
	C129.173477,301.352325 134.334061,299.182617 139.891388,296.978729 
z"/>
<path fill="#ADADAD" opacity="1.000000" stroke="none" 
	d="
M287.745880,373.306549 
	C288.774078,376.985718 289.571289,380.313202 290.368530,383.640686 
	C289.638550,383.880371 288.908600,384.120026 288.178650,384.359680 
	C283.286652,378.468689 283.985107,370.280914 280.558838,363.601471 
	C284.343781,362.243652 285.927979,363.187927 286.105591,366.874176 
	C286.204132,368.918976 287.021484,370.929108 287.745880,373.306549 
z"/>
<path fill="#000000" opacity="1.000000" stroke="none" 
	d="
M220.943878,385.815308 
	C219.110397,391.210846 216.135101,388.179291 213.665344,387.135468 
	C210.972321,385.997253 210.559662,384.053864 211.892624,381.301758 
	C213.751816,377.463196 216.544785,378.172119 219.527435,379.197052 
	C223.249756,380.476135 221.987457,382.989227 220.943878,385.815308 
z"/>
<path fill="#000000" opacity="1.000000" stroke="none" 
	d="
M368.746338,220.826981 
	C375.086243,216.661560 379.096802,216.797119 380.915985,221.358002 
	C381.550293,222.948273 381.193665,226.444229 380.269623,226.873306 
	C376.996521,228.393188 373.288788,229.653137 369.733856,229.685043 
	C366.655182,229.712662 366.094788,225.129623 368.746338,220.826981 
z"/>
<path fill="#000000" opacity="1.000000" stroke="none" 
	d="
M135.061218,317.848602 
	C135.453644,311.939240 139.234055,310.140076 143.950272,309.618195 
	C147.432053,309.232910 150.545364,313.697937 148.682983,316.597321 
	C146.421463,320.118103 143.083328,322.778534 138.719894,322.483978 
	C137.419601,322.396210 136.293350,319.729919 135.061218,317.848602 
z"/>
<path fill="#000000" opacity="1.000000" stroke="none" 
	d="
M374.341949,273.530090 
	C369.457489,272.818298 367.902222,269.739502 369.228638,266.029510 
	C370.388458,262.785492 373.376221,261.043152 377.196075,262.610291 
	C378.825928,263.278961 380.895355,263.555115 381.961090,264.735504 
	C383.106842,266.004486 384.110016,268.356598 383.690735,269.806793 
	C383.297638,271.166290 381.077881,272.230804 379.449310,272.929688 
	C378.019196,273.543427 376.294556,273.470673 374.341949,273.530090 
z"/>
<path fill="#000000" opacity="1.000000" stroke="none" 
	d="
M349.387268,321.323273 
	C352.151489,322.293030 355.033051,322.974243 356.883484,324.737518 
	C359.108887,326.858124 361.028564,329.645660 357.653931,332.931396 
	C354.596130,335.908600 352.328064,335.583618 349.258789,332.869385 
	C343.562744,327.832214 343.335815,324.747894 349.387268,321.323273 
z"/>
<path fill="#000000" opacity="1.000000" stroke="none" 
	d="
M363.741333,196.458160 
	C362.024109,200.362213 359.161987,200.009537 357.206238,197.508560 
	C356.211731,196.236862 357.138611,193.462631 357.196930,191.367615 
	C358.819611,192.116241 360.536835,192.718033 362.024597,193.676163 
	C362.755798,194.147064 363.061829,195.278198 363.741333,196.458160 
z"/>
<path fill="#000000" opacity="1.000000" stroke="none" 
	d="
M142.404633,197.955536 
	C142.798874,198.702103 143.114700,199.262833 142.965164,199.638138 
	C142.117538,201.765274 141.207245,203.873962 140.132797,205.890106 
	C140.057449,206.031494 137.737442,205.392303 137.730972,205.089050 
	C137.678696,202.634094 137.491730,200.036255 138.203384,197.748795 
	C139.037445,195.067917 140.758575,196.036636 142.404633,197.955536 
z"/>
<path fill="#000000" opacity="1.000000" stroke="none" 
	d="
M331.857208,345.852905 
	C330.239990,348.438080 328.598999,350.650238 325.964874,354.201233 
	C325.093414,350.925262 323.844086,348.781647 324.260651,347.035400 
	C324.634003,345.470428 326.665344,343.947998 328.322815,343.210175 
	C329.018402,342.900543 330.635345,344.660675 331.857208,345.852905 
z"/>
<path fill="#000000" opacity="1.000000" stroke="none" 
	d="
M198.311890,144.223358 
	C196.415970,145.856613 194.770981,147.186188 193.063339,148.566406 
	C190.132324,143.227554 190.927734,141.760147 198.330795,138.782684 
	C198.417572,140.703979 198.490204,142.311829 198.311890,144.223358 
z"/>
<path fill="#000000" opacity="1.000000" stroke="none" 
	d="
M167.397003,163.630707 
	C168.225769,160.423859 169.357605,157.503021 170.489456,154.582169 
	C171.212296,154.623627 171.935135,154.665085 172.657974,154.706528 
	C173.209915,156.235992 174.568787,158.048660 174.151413,159.237915 
	C173.183228,161.996658 171.706192,164.954071 167.397003,163.630707 
z"/>
<path fill="#000000" opacity="1.000000" stroke="none" 
	d="
M148.505356,338.973511 
	C148.217072,336.339722 148.217072,333.970062 148.217072,330.527710 
	C151.086807,333.554016 153.046249,335.620361 155.157959,337.847290 
	C153.388611,340.646118 151.423660,341.367035 148.505356,338.973511 
z"/>
<path fill="#000000" opacity="1.000000" stroke="none" 
	d="
M195.863083,368.027039 
	C197.664337,369.075989 199.097549,370.084595 200.527054,371.090607 
	C197.888947,374.735260 193.875534,375.036896 192.419861,371.637238 
	C191.985413,370.622620 192.281235,369.127686 192.695755,368.022888 
	C192.814865,367.705414 194.518112,367.982330 195.863083,368.027039 
z"/>
<path fill="#000000" opacity="1.000000" stroke="none" 
	d="
M370.213440,248.494324 
	C369.551758,244.899353 369.853790,241.717468 373.658020,241.234100 
	C376.800171,240.834854 380.230804,241.131485 383.230286,242.079514 
	C384.214264,242.390518 385.160034,246.078766 384.550964,247.588089 
	C382.368469,252.996124 374.149475,253.576401 370.213440,248.494324 
z"/>
<path fill="#000000" opacity="1.000000" stroke="none" 
	d="
M326.129639,159.969864 
	C325.023438,159.288376 323.895264,158.752487 323.658173,157.952530 
	C323.185547,156.357880 323.202362,154.618179 323.016998,152.938385 
	C324.430664,152.862930 325.948212,152.431381 327.230652,152.805618 
	C328.706909,153.236450 329.975311,154.379578 332.278229,155.792770 
	C330.133209,157.356003 328.321930,158.676025 326.129639,159.969864 
z"/>
<path fill="#000000" opacity="1.000000" stroke="none" 
	d="
M369.688660,306.218262 
	C373.203491,309.857605 370.723358,312.652740 368.463104,314.639771 
	C366.271149,316.566711 359.178223,314.476471 357.596405,312.070831 
	C356.027710,309.685120 356.943512,304.425934 359.399139,303.227692 
	C363.418427,301.266449 366.378784,303.940765 369.688660,306.218262 
z"/>
</svg>